{
	"asset":{
		"generator":"Khronos glTF Blender I/O v4.0.44",
		"version":"2.0"
	},
	"scene":0,
	"scenes":[
		{
			"name":"Scene",
			"nodes":[
				0
			]
		}
	],
	"nodes":[
		{
			"mesh":0,
			"name":"Peitsche",
			"rotation":[
				0.7071068286895752,
				0,
				0,
				0.7071068286895752
			]
		}
	],
	"materials":[
		{
			"doubleSided":true,
			"name":"Mat_Peitsche",
			"pbrMetallicRoughness":{
				"baseColorFactor":[
					0.03303784132003784,
					0.03303784132003784,
					0.03303784132003784,
					1
				],
				"metallicFactor":0,
				"roughnessFactor":0.6000000238418579
			}
		},
		{
			"doubleSided":true,
			"name":"Mat_Herz",
			"pbrMetallicRoughness":{
				"baseColorFactor":[
					0.8001416921615601,
					0,
					0.04322338104248047,
					1
				],
				"metallicFactor":0.5981873273849487,
				"roughnessFactor":0.3489425778388977
			}
		}
	],
	"meshes":[
		{
			"name":"Circle",
			"primitives":[
				{
					"attributes":{
						"POSITION":0,
						"NORMAL":1,
						"TEXCOORD_0":2
					},
					"indices":3,
					"material":0
				},
				{
					"attributes":{
						"POSITION":4,
						"NORMAL":5,
						"TEXCOORD_0":6
					},
					"indices":7,
					"material":1
				}
			]
		}
	],
	"accessors":[
		{
			"bufferView":0,
			"componentType":5126,
			"count":428,
			"max":[
				0.05469677969813347,
				4.906763553619385,
				0.570622444152832
			],
			"min":[
				-0.05469673499464989,
				-0.19278006255626678,
				-0.4710259437561035
			],
			"type":"VEC3"
		},
		{
			"bufferView":1,
			"componentType":5126,
			"count":428,
			"type":"VEC3"
		},
		{
			"bufferView":2,
			"componentType":5126,
			"count":428,
			"type":"VEC2"
		},
		{
			"bufferView":3,
			"componentType":5123,
			"count":1896,
			"type":"SCALAR"
		},
		{
			"bufferView":4,
			"componentType":5126,
			"count":69,
			"max":[
				0.05095524340867996,
				-0.1683875322341919,
				0.09685027599334717
			],
			"min":[
				-0.05095524340867996,
				-0.355630099773407,
				-0.09685033559799194
			],
			"type":"VEC3"
		},
		{
			"bufferView":5,
			"componentType":5126,
			"count":69,
			"type":"VEC3"
		},
		{
			"bufferView":6,
			"componentType":5126,
			"count":69,
			"type":"VEC2"
		},
		{
			"bufferView":7,
			"componentType":5123,
			"count":312,
			"type":"SCALAR"
		}
	],
	"bufferViews":[
		{
			"buffer":0,
			"byteLength":5136,
			"byteOffset":0,
			"target":34962
		},
		{
			"buffer":0,
			"byteLength":5136,
			"byteOffset":5136,
			"target":34962
		},
		{
			"buffer":0,
			"byteLength":3424,
			"byteOffset":10272,
			"target":34962
		},
		{
			"buffer":0,
			"byteLength":3792,
			"byteOffset":13696,
			"target":34963
		},
		{
			"buffer":0,
			"byteLength":828,
			"byteOffset":17488,
			"target":34962
		},
		{
			"buffer":0,
			"byteLength":828,
			"byteOffset":18316,
			"target":34962
		},
		{
			"buffer":0,
			"byteLength":552,
			"byteOffset":19144,
			"target":34962
		},
		{
			"buffer":0,
			"byteLength":624,
			"byteOffset":19696,
			"target":34963
		}
	],
	"buffers":[
		{
			"byteLength":20320,
			"uri":"Peitsche.bin"
		}
	]
}
