{
	"asset":{
		"generator":"Khronos glTF Blender I/O v4.0.44",
		"version":"2.0"
	},
	"scene":0,
	"scenes":[
		{
			"name":"Scene",
			"nodes":[
				8,
				9
			]
		}
	],
	"nodes":[
		{
			"name":"Root",
			"rotation":[
				0.7071070075035095,
				5.338507236274381e-08,
				5.338507236274381e-08,
				0.7071065306663513
			],
			"translation":[
				-1.332267682489747e-16,
				4.529874431113967e-08,
				-0.30000001192092896
			]
		},
		{
			"name":"Bone.001",
			"rotation":[
				0.7071067690849304,
				-5.591472245214391e-07,
				-5.591472245214391e-07,
				0.7071067690849304
			],
			"translation":[
				0,
				0,
				0.800000011920929
			]
		},
		{
			"name":"Bone.002",
			"rotation":[
				0.7071067690849304,
				-6.434409556277387e-07,
				-6.434409556277387e-07,
				0.7071067690849304
			],
			"translation":[
				0,
				0,
				1.6000001430511475
			]
		},
		{
			"name":"Bone.003",
			"rotation":[
				0.7071067690849304,
				-6.434409556277387e-07,
				-6.434409556277387e-07,
				0.7071067690849304
			],
			"translation":[
				0,
				0,
				2.4000000953674316
			]
		},
		{
			"name":"Bone.004",
			"rotation":[
				0.7071067690849304,
				-7.277346867340384e-07,
				-7.277346867340384e-07,
				0.7071067690849304
			],
			"translation":[
				0,
				0,
				3.200000047683716
			]
		},
		{
			"name":"Bone.005",
			"rotation":[
				0.7071067690849304,
				-4.7485355025855824e-07,
				-4.7485355025855824e-07,
				0.7071067690849304
			],
			"translation":[
				0,
				0,
				3.999999761581421
			]
		},
		{
			"name":"Bone.006",
			"rotation":[
				0.7071067690849304,
				-4.7485355025855824e-07,
				-4.7485355025855824e-07,
				0.7071067690849304
			],
			"translation":[
				0,
				0,
				4.799999713897705
			]
		},
		{
			"name":"Bone.007",
			"rotation":[
				0.7071067690849304,
				-4.7485355025855824e-07,
				-4.7485355025855824e-07,
				0.7071067690849304
			],
			"translation":[
				0,
				0,
				5.599999904632568
			]
		},
		{
			"children":[
				0,
				1,
				2,
				3,
				4,
				5,
				6,
				7
			],
			"name":"Peitsche_Control_Rig",
			"translation":[
				0,
				0,
				0.30000001192092896
			]
		},
		{
			"mesh":0,
			"name":"Peitsche",
			"rotation":[
				-0.7071065902709961,
				0,
				0,
				0.7071069478988647
			]
		}
	],
	"animations":[
		{
			"channels":[
				{
					"sampler":0,
					"target":{
						"node":0,
						"path":"translation"
					}
				},
				{
					"sampler":1,
					"target":{
						"node":0,
						"path":"rotation"
					}
				},
				{
					"sampler":2,
					"target":{
						"node":0,
						"path":"scale"
					}
				},
				{
					"sampler":3,
					"target":{
						"node":1,
						"path":"translation"
					}
				},
				{
					"sampler":4,
					"target":{
						"node":1,
						"path":"rotation"
					}
				},
				{
					"sampler":5,
					"target":{
						"node":1,
						"path":"scale"
					}
				},
				{
					"sampler":6,
					"target":{
						"node":2,
						"path":"translation"
					}
				},
				{
					"sampler":7,
					"target":{
						"node":2,
						"path":"rotation"
					}
				},
				{
					"sampler":8,
					"target":{
						"node":2,
						"path":"scale"
					}
				},
				{
					"sampler":9,
					"target":{
						"node":3,
						"path":"translation"
					}
				},
				{
					"sampler":10,
					"target":{
						"node":3,
						"path":"rotation"
					}
				},
				{
					"sampler":11,
					"target":{
						"node":3,
						"path":"scale"
					}
				},
				{
					"sampler":12,
					"target":{
						"node":4,
						"path":"translation"
					}
				},
				{
					"sampler":13,
					"target":{
						"node":4,
						"path":"rotation"
					}
				},
				{
					"sampler":14,
					"target":{
						"node":4,
						"path":"scale"
					}
				},
				{
					"sampler":15,
					"target":{
						"node":5,
						"path":"translation"
					}
				},
				{
					"sampler":16,
					"target":{
						"node":5,
						"path":"rotation"
					}
				},
				{
					"sampler":17,
					"target":{
						"node":5,
						"path":"scale"
					}
				},
				{
					"sampler":18,
					"target":{
						"node":6,
						"path":"translation"
					}
				},
				{
					"sampler":19,
					"target":{
						"node":6,
						"path":"rotation"
					}
				},
				{
					"sampler":20,
					"target":{
						"node":6,
						"path":"scale"
					}
				},
				{
					"sampler":21,
					"target":{
						"node":7,
						"path":"translation"
					}
				},
				{
					"sampler":22,
					"target":{
						"node":7,
						"path":"rotation"
					}
				},
				{
					"sampler":23,
					"target":{
						"node":7,
						"path":"scale"
					}
				}
			],
			"name":"Roll",
			"samplers":[
				{
					"input":15,
					"interpolation":"LINEAR",
					"output":16
				},
				{
					"input":15,
					"interpolation":"LINEAR",
					"output":17
				},
				{
					"input":15,
					"interpolation":"STEP",
					"output":18
				},
				{
					"input":15,
					"interpolation":"LINEAR",
					"output":19
				},
				{
					"input":15,
					"interpolation":"LINEAR",
					"output":20
				},
				{
					"input":15,
					"interpolation":"STEP",
					"output":21
				},
				{
					"input":15,
					"interpolation":"LINEAR",
					"output":22
				},
				{
					"input":15,
					"interpolation":"LINEAR",
					"output":23
				},
				{
					"input":15,
					"interpolation":"STEP",
					"output":24
				},
				{
					"input":15,
					"interpolation":"LINEAR",
					"output":25
				},
				{
					"input":15,
					"interpolation":"LINEAR",
					"output":26
				},
				{
					"input":15,
					"interpolation":"STEP",
					"output":27
				},
				{
					"input":15,
					"interpolation":"LINEAR",
					"output":28
				},
				{
					"input":15,
					"interpolation":"LINEAR",
					"output":29
				},
				{
					"input":15,
					"interpolation":"STEP",
					"output":30
				},
				{
					"input":15,
					"interpolation":"LINEAR",
					"output":31
				},
				{
					"input":15,
					"interpolation":"LINEAR",
					"output":32
				},
				{
					"input":15,
					"interpolation":"STEP",
					"output":33
				},
				{
					"input":15,
					"interpolation":"LINEAR",
					"output":34
				},
				{
					"input":15,
					"interpolation":"LINEAR",
					"output":35
				},
				{
					"input":15,
					"interpolation":"STEP",
					"output":36
				},
				{
					"input":15,
					"interpolation":"LINEAR",
					"output":37
				},
				{
					"input":15,
					"interpolation":"LINEAR",
					"output":38
				},
				{
					"input":15,
					"interpolation":"STEP",
					"output":39
				}
			]
		},
		{
			"channels":[
				{
					"sampler":0,
					"target":{
						"node":0,
						"path":"translation"
					}
				},
				{
					"sampler":1,
					"target":{
						"node":0,
						"path":"rotation"
					}
				},
				{
					"sampler":2,
					"target":{
						"node":0,
						"path":"scale"
					}
				},
				{
					"sampler":3,
					"target":{
						"node":1,
						"path":"translation"
					}
				},
				{
					"sampler":4,
					"target":{
						"node":1,
						"path":"rotation"
					}
				},
				{
					"sampler":5,
					"target":{
						"node":1,
						"path":"scale"
					}
				},
				{
					"sampler":6,
					"target":{
						"node":2,
						"path":"translation"
					}
				},
				{
					"sampler":7,
					"target":{
						"node":2,
						"path":"rotation"
					}
				},
				{
					"sampler":8,
					"target":{
						"node":2,
						"path":"scale"
					}
				},
				{
					"sampler":9,
					"target":{
						"node":3,
						"path":"translation"
					}
				},
				{
					"sampler":10,
					"target":{
						"node":3,
						"path":"rotation"
					}
				},
				{
					"sampler":11,
					"target":{
						"node":3,
						"path":"scale"
					}
				},
				{
					"sampler":12,
					"target":{
						"node":4,
						"path":"translation"
					}
				},
				{
					"sampler":13,
					"target":{
						"node":4,
						"path":"rotation"
					}
				},
				{
					"sampler":14,
					"target":{
						"node":4,
						"path":"scale"
					}
				},
				{
					"sampler":15,
					"target":{
						"node":5,
						"path":"translation"
					}
				},
				{
					"sampler":16,
					"target":{
						"node":5,
						"path":"rotation"
					}
				},
				{
					"sampler":17,
					"target":{
						"node":5,
						"path":"scale"
					}
				},
				{
					"sampler":18,
					"target":{
						"node":6,
						"path":"translation"
					}
				},
				{
					"sampler":19,
					"target":{
						"node":6,
						"path":"rotation"
					}
				},
				{
					"sampler":20,
					"target":{
						"node":6,
						"path":"scale"
					}
				},
				{
					"sampler":21,
					"target":{
						"node":7,
						"path":"translation"
					}
				},
				{
					"sampler":22,
					"target":{
						"node":7,
						"path":"rotation"
					}
				},
				{
					"sampler":23,
					"target":{
						"node":7,
						"path":"scale"
					}
				}
			],
			"name":"Roll_to_Swing",
			"samplers":[
				{
					"input":40,
					"interpolation":"LINEAR",
					"output":41
				},
				{
					"input":40,
					"interpolation":"LINEAR",
					"output":42
				},
				{
					"input":43,
					"interpolation":"STEP",
					"output":44
				},
				{
					"input":40,
					"interpolation":"LINEAR",
					"output":45
				},
				{
					"input":40,
					"interpolation":"LINEAR",
					"output":46
				},
				{
					"input":43,
					"interpolation":"LINEAR",
					"output":47
				},
				{
					"input":40,
					"interpolation":"LINEAR",
					"output":48
				},
				{
					"input":40,
					"interpolation":"LINEAR",
					"output":49
				},
				{
					"input":43,
					"interpolation":"LINEAR",
					"output":50
				},
				{
					"input":40,
					"interpolation":"LINEAR",
					"output":51
				},
				{
					"input":40,
					"interpolation":"LINEAR",
					"output":52
				},
				{
					"input":43,
					"interpolation":"STEP",
					"output":53
				},
				{
					"input":40,
					"interpolation":"LINEAR",
					"output":54
				},
				{
					"input":40,
					"interpolation":"LINEAR",
					"output":55
				},
				{
					"input":43,
					"interpolation":"LINEAR",
					"output":56
				},
				{
					"input":40,
					"interpolation":"LINEAR",
					"output":57
				},
				{
					"input":40,
					"interpolation":"LINEAR",
					"output":58
				},
				{
					"input":43,
					"interpolation":"LINEAR",
					"output":59
				},
				{
					"input":40,
					"interpolation":"LINEAR",
					"output":60
				},
				{
					"input":40,
					"interpolation":"LINEAR",
					"output":61
				},
				{
					"input":43,
					"interpolation":"LINEAR",
					"output":62
				},
				{
					"input":40,
					"interpolation":"LINEAR",
					"output":63
				},
				{
					"input":40,
					"interpolation":"LINEAR",
					"output":64
				},
				{
					"input":43,
					"interpolation":"STEP",
					"output":65
				}
			]
		}
	],
	"materials":[
		{
			"doubleSided":true,
			"name":"Mat_Peitsche",
			"pbrMetallicRoughness":{}
		},
		{
			"doubleSided":true,
			"name":"Mat_Herz",
			"pbrMetallicRoughness":{
				"baseColorFactor":[
					0.8001416921615601,
					0,
					0.04322338104248047,
					1
				],
				"metallicFactor":0.5981873273849487,
				"roughnessFactor":0.3489425778388977
			}
		},
		{
			"doubleSided":true,
			"name":"Mat_Schleife",
			"pbrMetallicRoughness":{
				"baseColorFactor":[
					0.8885799646377563,
					0.11083158105611801,
					0.2960914671421051,
					1
				],
				"metallicFactor":0,
				"roughnessFactor":0.8081570863723755
			}
		}
	],
	"meshes":[
		{
			"name":"Peitsche",
			"primitives":[
				{
					"attributes":{
						"POSITION":0,
						"NORMAL":1,
						"TEXCOORD_0":2,
						"TEXCOORD_1":3
					},
					"indices":4,
					"material":0
				},
				{
					"attributes":{
						"POSITION":5,
						"NORMAL":6,
						"TEXCOORD_0":7,
						"TEXCOORD_1":8
					},
					"indices":9,
					"material":1
				},
				{
					"attributes":{
						"POSITION":10,
						"NORMAL":11,
						"TEXCOORD_0":12,
						"TEXCOORD_1":13
					},
					"indices":14,
					"material":2
				}
			]
		}
	],
	"skins":[
		{
			"inverseBindMatrices":66,
			"joints":[
				0,
				1,
				2,
				3,
				4,
				5,
				6,
				7
			],
			"name":"Peitsche_Control_Rig"
		}
	],
	"accessors":[
		{
			"bufferView":0,
			"componentType":5126,
			"count":661,
			"max":[
				0.054696861654520035,
				0.4927801489830017,
				0.05469657853245735
			],
			"min":[
				-0.054696787148714066,
				-4.8299994468688965,
				-0.054697077721357346
			],
			"type":"VEC3"
		},
		{
			"bufferView":1,
			"componentType":5126,
			"count":661,
			"type":"VEC3"
		},
		{
			"bufferView":2,
			"componentType":5126,
			"count":661,
			"type":"VEC2"
		},
		{
			"bufferView":3,
			"componentType":5126,
			"count":661,
			"type":"VEC2"
		},
		{
			"bufferView":4,
			"componentType":5123,
			"count":3114,
			"type":"SCALAR"
		},
		{
			"bufferView":5,
			"componentType":5126,
			"count":69,
			"max":[
				0.050955161452293396,
				0.6556302309036255,
				0.09685011953115463
			],
			"min":[
				-0.05095534026622772,
				0.468387633562088,
				-0.09685049206018448
			],
			"type":"VEC3"
		},
		{
			"bufferView":6,
			"componentType":5126,
			"count":69,
			"type":"VEC3"
		},
		{
			"bufferView":7,
			"componentType":5126,
			"count":69,
			"type":"VEC2"
		},
		{
			"bufferView":8,
			"componentType":5126,
			"count":69,
			"type":"VEC2"
		},
		{
			"bufferView":9,
			"componentType":5123,
			"count":312,
			"type":"SCALAR"
		},
		{
			"bufferView":10,
			"componentType":5126,
			"count":203,
			"max":[
				0.13278333842754364,
				0.020411193370819092,
				0.04956049844622612
			],
			"min":[
				-0.13278335332870483,
				-0.052580446004867554,
				-0.03952450677752495
			],
			"type":"VEC3"
		},
		{
			"bufferView":11,
			"componentType":5126,
			"count":203,
			"type":"VEC3"
		},
		{
			"bufferView":12,
			"componentType":5126,
			"count":203,
			"type":"VEC2"
		},
		{
			"bufferView":13,
			"componentType":5126,
			"count":203,
			"type":"VEC2"
		},
		{
			"bufferView":14,
			"componentType":5123,
			"count":714,
			"type":"SCALAR"
		},
		{
			"bufferView":15,
			"componentType":5126,
			"count":1,
			"max":[
				0
			],
			"min":[
				0
			],
			"type":"SCALAR"
		},
		{
			"bufferView":16,
			"componentType":5126,
			"count":1,
			"type":"VEC3"
		},
		{
			"bufferView":17,
			"componentType":5126,
			"count":1,
			"type":"VEC4"
		},
		{
			"bufferView":18,
			"componentType":5126,
			"count":1,
			"type":"VEC3"
		},
		{
			"bufferView":19,
			"componentType":5126,
			"count":1,
			"type":"VEC3"
		},
		{
			"bufferView":20,
			"componentType":5126,
			"count":1,
			"type":"VEC4"
		},
		{
			"bufferView":21,
			"componentType":5126,
			"count":1,
			"type":"VEC3"
		},
		{
			"bufferView":22,
			"componentType":5126,
			"count":1,
			"type":"VEC3"
		},
		{
			"bufferView":23,
			"componentType":5126,
			"count":1,
			"type":"VEC4"
		},
		{
			"bufferView":24,
			"componentType":5126,
			"count":1,
			"type":"VEC3"
		},
		{
			"bufferView":25,
			"componentType":5126,
			"count":1,
			"type":"VEC3"
		},
		{
			"bufferView":26,
			"componentType":5126,
			"count":1,
			"type":"VEC4"
		},
		{
			"bufferView":27,
			"componentType":5126,
			"count":1,
			"type":"VEC3"
		},
		{
			"bufferView":28,
			"componentType":5126,
			"count":1,
			"type":"VEC3"
		},
		{
			"bufferView":29,
			"componentType":5126,
			"count":1,
			"type":"VEC4"
		},
		{
			"bufferView":30,
			"componentType":5126,
			"count":1,
			"type":"VEC3"
		},
		{
			"bufferView":31,
			"componentType":5126,
			"count":1,
			"type":"VEC3"
		},
		{
			"bufferView":32,
			"componentType":5126,
			"count":1,
			"type":"VEC4"
		},
		{
			"bufferView":33,
			"componentType":5126,
			"count":1,
			"type":"VEC3"
		},
		{
			"bufferView":34,
			"componentType":5126,
			"count":1,
			"type":"VEC3"
		},
		{
			"bufferView":35,
			"componentType":5126,
			"count":1,
			"type":"VEC4"
		},
		{
			"bufferView":36,
			"componentType":5126,
			"count":1,
			"type":"VEC3"
		},
		{
			"bufferView":37,
			"componentType":5126,
			"count":1,
			"type":"VEC3"
		},
		{
			"bufferView":38,
			"componentType":5126,
			"count":1,
			"type":"VEC4"
		},
		{
			"bufferView":39,
			"componentType":5126,
			"count":1,
			"type":"VEC3"
		},
		{
			"bufferView":40,
			"componentType":5126,
			"count":66,
			"max":[
				1.0833333333333333
			],
			"min":[
				0
			],
			"type":"SCALAR"
		},
		{
			"bufferView":41,
			"componentType":5126,
			"count":66,
			"type":"VEC3"
		},
		{
			"bufferView":42,
			"componentType":5126,
			"count":66,
			"type":"VEC4"
		},
		{
			"bufferView":43,
			"componentType":5126,
			"count":2,
			"max":[
				1.0833333333333333
			],
			"min":[
				0
			],
			"type":"SCALAR"
		},
		{
			"bufferView":44,
			"componentType":5126,
			"count":2,
			"type":"VEC3"
		},
		{
			"bufferView":45,
			"componentType":5126,
			"count":66,
			"type":"VEC3"
		},
		{
			"bufferView":46,
			"componentType":5126,
			"count":66,
			"type":"VEC4"
		},
		{
			"bufferView":47,
			"componentType":5126,
			"count":2,
			"type":"VEC3"
		},
		{
			"bufferView":48,
			"componentType":5126,
			"count":66,
			"type":"VEC3"
		},
		{
			"bufferView":49,
			"componentType":5126,
			"count":66,
			"type":"VEC4"
		},
		{
			"bufferView":50,
			"componentType":5126,
			"count":2,
			"type":"VEC3"
		},
		{
			"bufferView":51,
			"componentType":5126,
			"count":66,
			"type":"VEC3"
		},
		{
			"bufferView":52,
			"componentType":5126,
			"count":66,
			"type":"VEC4"
		},
		{
			"bufferView":53,
			"componentType":5126,
			"count":2,
			"type":"VEC3"
		},
		{
			"bufferView":54,
			"componentType":5126,
			"count":66,
			"type":"VEC3"
		},
		{
			"bufferView":55,
			"componentType":5126,
			"count":66,
			"type":"VEC4"
		},
		{
			"bufferView":56,
			"componentType":5126,
			"count":2,
			"type":"VEC3"
		},
		{
			"bufferView":57,
			"componentType":5126,
			"count":66,
			"type":"VEC3"
		},
		{
			"bufferView":58,
			"componentType":5126,
			"count":66,
			"type":"VEC4"
		},
		{
			"bufferView":59,
			"componentType":5126,
			"count":2,
			"type":"VEC3"
		},
		{
			"bufferView":60,
			"componentType":5126,
			"count":66,
			"type":"VEC3"
		},
		{
			"bufferView":61,
			"componentType":5126,
			"count":66,
			"type":"VEC4"
		},
		{
			"bufferView":62,
			"componentType":5126,
			"count":2,
			"type":"VEC3"
		},
		{
			"bufferView":63,
			"componentType":5126,
			"count":66,
			"type":"VEC3"
		},
		{
			"bufferView":64,
			"componentType":5126,
			"count":66,
			"type":"VEC4"
		},
		{
			"bufferView":65,
			"componentType":5126,
			"count":2,
			"type":"VEC3"
		},
		{
			"bufferView":66,
			"componentType":5126,
			"count":8,
			"type":"MAT4"
		}
	],
	"bufferViews":[
		{
			"buffer":0,
			"byteLength":7932,
			"byteOffset":0,
			"target":34962
		},
		{
			"buffer":0,
			"byteLength":7932,
			"byteOffset":7932,
			"target":34962
		},
		{
			"buffer":0,
			"byteLength":5288,
			"byteOffset":15864,
			"target":34962
		},
		{
			"buffer":0,
			"byteLength":5288,
			"byteOffset":21152,
			"target":34962
		},
		{
			"buffer":0,
			"byteLength":6228,
			"byteOffset":26440,
			"target":34963
		},
		{
			"buffer":0,
			"byteLength":828,
			"byteOffset":32668,
			"target":34962
		},
		{
			"buffer":0,
			"byteLength":828,
			"byteOffset":33496,
			"target":34962
		},
		{
			"buffer":0,
			"byteLength":552,
			"byteOffset":34324,
			"target":34962
		},
		{
			"buffer":0,
			"byteLength":552,
			"byteOffset":34876,
			"target":34962
		},
		{
			"buffer":0,
			"byteLength":624,
			"byteOffset":35428,
			"target":34963
		},
		{
			"buffer":0,
			"byteLength":2436,
			"byteOffset":36052,
			"target":34962
		},
		{
			"buffer":0,
			"byteLength":2436,
			"byteOffset":38488,
			"target":34962
		},
		{
			"buffer":0,
			"byteLength":1624,
			"byteOffset":40924,
			"target":34962
		},
		{
			"buffer":0,
			"byteLength":1624,
			"byteOffset":42548,
			"target":34962
		},
		{
			"buffer":0,
			"byteLength":1428,
			"byteOffset":44172,
			"target":34963
		},
		{
			"buffer":0,
			"byteLength":4,
			"byteOffset":45600
		},
		{
			"buffer":0,
			"byteLength":12,
			"byteOffset":45604
		},
		{
			"buffer":0,
			"byteLength":16,
			"byteOffset":45616
		},
		{
			"buffer":0,
			"byteLength":12,
			"byteOffset":45632
		},
		{
			"buffer":0,
			"byteLength":12,
			"byteOffset":45644
		},
		{
			"buffer":0,
			"byteLength":16,
			"byteOffset":45656
		},
		{
			"buffer":0,
			"byteLength":12,
			"byteOffset":45672
		},
		{
			"buffer":0,
			"byteLength":12,
			"byteOffset":45684
		},
		{
			"buffer":0,
			"byteLength":16,
			"byteOffset":45696
		},
		{
			"buffer":0,
			"byteLength":12,
			"byteOffset":45712
		},
		{
			"buffer":0,
			"byteLength":12,
			"byteOffset":45724
		},
		{
			"buffer":0,
			"byteLength":16,
			"byteOffset":45736
		},
		{
			"buffer":0,
			"byteLength":12,
			"byteOffset":45752
		},
		{
			"buffer":0,
			"byteLength":12,
			"byteOffset":45764
		},
		{
			"buffer":0,
			"byteLength":16,
			"byteOffset":45776
		},
		{
			"buffer":0,
			"byteLength":12,
			"byteOffset":45792
		},
		{
			"buffer":0,
			"byteLength":12,
			"byteOffset":45804
		},
		{
			"buffer":0,
			"byteLength":16,
			"byteOffset":45816
		},
		{
			"buffer":0,
			"byteLength":12,
			"byteOffset":45832
		},
		{
			"buffer":0,
			"byteLength":12,
			"byteOffset":45844
		},
		{
			"buffer":0,
			"byteLength":16,
			"byteOffset":45856
		},
		{
			"buffer":0,
			"byteLength":12,
			"byteOffset":45872
		},
		{
			"buffer":0,
			"byteLength":12,
			"byteOffset":45884
		},
		{
			"buffer":0,
			"byteLength":16,
			"byteOffset":45896
		},
		{
			"buffer":0,
			"byteLength":12,
			"byteOffset":45912
		},
		{
			"buffer":0,
			"byteLength":264,
			"byteOffset":45924
		},
		{
			"buffer":0,
			"byteLength":792,
			"byteOffset":46188
		},
		{
			"buffer":0,
			"byteLength":1056,
			"byteOffset":46980
		},
		{
			"buffer":0,
			"byteLength":8,
			"byteOffset":48036
		},
		{
			"buffer":0,
			"byteLength":24,
			"byteOffset":48044
		},
		{
			"buffer":0,
			"byteLength":792,
			"byteOffset":48068
		},
		{
			"buffer":0,
			"byteLength":1056,
			"byteOffset":48860
		},
		{
			"buffer":0,
			"byteLength":24,
			"byteOffset":49916
		},
		{
			"buffer":0,
			"byteLength":792,
			"byteOffset":49940
		},
		{
			"buffer":0,
			"byteLength":1056,
			"byteOffset":50732
		},
		{
			"buffer":0,
			"byteLength":24,
			"byteOffset":51788
		},
		{
			"buffer":0,
			"byteLength":792,
			"byteOffset":51812
		},
		{
			"buffer":0,
			"byteLength":1056,
			"byteOffset":52604
		},
		{
			"buffer":0,
			"byteLength":24,
			"byteOffset":53660
		},
		{
			"buffer":0,
			"byteLength":792,
			"byteOffset":53684
		},
		{
			"buffer":0,
			"byteLength":1056,
			"byteOffset":54476
		},
		{
			"buffer":0,
			"byteLength":24,
			"byteOffset":55532
		},
		{
			"buffer":0,
			"byteLength":792,
			"byteOffset":55556
		},
		{
			"buffer":0,
			"byteLength":1056,
			"byteOffset":56348
		},
		{
			"buffer":0,
			"byteLength":24,
			"byteOffset":57404
		},
		{
			"buffer":0,
			"byteLength":792,
			"byteOffset":57428
		},
		{
			"buffer":0,
			"byteLength":1056,
			"byteOffset":58220
		},
		{
			"buffer":0,
			"byteLength":24,
			"byteOffset":59276
		},
		{
			"buffer":0,
			"byteLength":792,
			"byteOffset":59300
		},
		{
			"buffer":0,
			"byteLength":1056,
			"byteOffset":60092
		},
		{
			"buffer":0,
			"byteLength":24,
			"byteOffset":61148
		},
		{
			"buffer":0,
			"byteLength":512,
			"byteOffset":61172
		}
	],
	"buffers":[
		{
			"byteLength":61684,
			"uri":"Peitsche.bin"
		}
	]
}
