{
	"asset":{
		"generator":"Khronos glTF Blender I/O v4.0.44",
		"version":"2.0"
	},
	"scene":0,
	"scenes":[
		{
			"name":"Scene",
			"nodes":[
				0,
				1,
				2
			]
		}
	],
	"nodes":[
		{
			"mesh":0,
			"name":"Block_2x4_A"
		},
		{
			"mesh":1,
			"name":"Block_2x4_B"
		},
		{
			"mesh":2,
			"name":"Block_2x4_C"
		}
	],
	"materials":[
		{
			"doubleSided":true,
			"name":"Material",
			"pbrMetallicRoughness":{}
		}
	],
	"meshes":[
		{
			"name":"Block_2x4_A",
			"primitives":[
				{
					"attributes":{
						"POSITION":0,
						"NORMAL":1,
						"TEXCOORD_0":2
					},
					"indices":3,
					"material":0
				}
			]
		},
		{
			"name":"Block_2x4_B",
			"primitives":[
				{
					"attributes":{
						"POSITION":4,
						"NORMAL":5,
						"TEXCOORD_0":6
					},
					"indices":7,
					"material":0
				}
			]
		},
		{
			"name":"Block_2x4_C",
			"primitives":[
				{
					"attributes":{
						"POSITION":8,
						"NORMAL":9,
						"TEXCOORD_0":10
					},
					"indices":11,
					"material":0
				}
			]
		}
	],
	"accessors":[
		{
			"bufferView":0,
			"componentType":5126,
			"count":903,
			"max":[
				2,
				1.2053062915802002,
				2.671778440475464
			],
			"min":[
				-2,
				-2.238464593887329,
				-2.1850881576538086
			],
			"type":"VEC3"
		},
		{
			"bufferView":1,
			"componentType":5126,
			"count":903,
			"type":"VEC3"
		},
		{
			"bufferView":2,
			"componentType":5126,
			"count":903,
			"type":"VEC2"
		},
		{
			"bufferView":3,
			"componentType":5123,
			"count":2082,
			"type":"SCALAR"
		},
		{
			"bufferView":4,
			"componentType":5126,
			"count":726,
			"max":[
				2,
				1.2053062915802002,
				2.6356418132781982
			],
			"min":[
				-2.074821949005127,
				-2.238464593887329,
				-2.1850881576538086
			],
			"type":"VEC3"
		},
		{
			"bufferView":5,
			"componentType":5126,
			"count":726,
			"type":"VEC3"
		},
		{
			"bufferView":6,
			"componentType":5126,
			"count":726,
			"type":"VEC2"
		},
		{
			"bufferView":7,
			"componentType":5123,
			"count":1548,
			"type":"SCALAR"
		},
		{
			"bufferView":8,
			"componentType":5126,
			"count":729,
			"max":[
				2.054312229156494,
				0.26674383878707886,
				2.713393449783325
			],
			"min":[
				-2,
				-2.215573787689209,
				-2
			],
			"type":"VEC3"
		},
		{
			"bufferView":9,
			"componentType":5126,
			"count":729,
			"type":"VEC3"
		},
		{
			"bufferView":10,
			"componentType":5126,
			"count":729,
			"type":"VEC2"
		},
		{
			"bufferView":11,
			"componentType":5123,
			"count":1653,
			"type":"SCALAR"
		}
	],
	"bufferViews":[
		{
			"buffer":0,
			"byteLength":10836,
			"byteOffset":0,
			"target":34962
		},
		{
			"buffer":0,
			"byteLength":10836,
			"byteOffset":10836,
			"target":34962
		},
		{
			"buffer":0,
			"byteLength":7224,
			"byteOffset":21672,
			"target":34962
		},
		{
			"buffer":0,
			"byteLength":4164,
			"byteOffset":28896,
			"target":34963
		},
		{
			"buffer":0,
			"byteLength":8712,
			"byteOffset":33060,
			"target":34962
		},
		{
			"buffer":0,
			"byteLength":8712,
			"byteOffset":41772,
			"target":34962
		},
		{
			"buffer":0,
			"byteLength":5808,
			"byteOffset":50484,
			"target":34962
		},
		{
			"buffer":0,
			"byteLength":3096,
			"byteOffset":56292,
			"target":34963
		},
		{
			"buffer":0,
			"byteLength":8748,
			"byteOffset":59388,
			"target":34962
		},
		{
			"buffer":0,
			"byteLength":8748,
			"byteOffset":68136,
			"target":34962
		},
		{
			"buffer":0,
			"byteLength":5832,
			"byteOffset":76884,
			"target":34962
		},
		{
			"buffer":0,
			"byteLength":3306,
			"byteOffset":82716,
			"target":34963
		}
	],
	"buffers":[
		{
			"byteLength":86024,
			"uri":"Grid.bin"
		}
	]
}
